<svg width="127" height="30" viewBox="0 0 127 30" fill="none" xmlns="http://www.w3.org/2000/svg">
<path fill-rule="evenodd" clip-rule="evenodd" d="M20.89 4.99307H9.40039V0L25.7643 0V16.7624H20.89V4.99307Z" fill="#55B02E"/>
<path fill-rule="evenodd" clip-rule="evenodd" d="M11.9152 14.9285C11.1709 14.419 10.2958 14.1471 9.40057 14.1471V9.15405C11.2598 9.15405 13.0773 9.71881 14.6233 10.7769C16.1692 11.835 17.3741 13.3389 18.0856 15.0985C18.7971 16.8581 18.9832 18.7942 18.6205 20.6622C18.2578 22.5301 17.3625 24.2459 16.0478 25.5926C14.7331 26.9393 13.0581 27.8564 11.2345 28.228C9.41099 28.5996 7.52084 28.4089 5.80312 27.68C4.08539 26.9512 2.61722 25.7169 1.58427 24.1334C0.551327 22.5498 -3.54174e-06 20.6881 0 18.7835L4.87437 18.7835C4.87437 19.7005 5.13982 20.5969 5.63717 21.3594C6.13451 22.1218 6.84141 22.7161 7.66846 23.067C8.49552 23.418 9.40559 23.5098 10.2836 23.3309C11.1616 23.152 11.9681 22.7104 12.6011 22.062C13.2341 21.4136 13.6652 20.5874 13.8398 19.6881C14.0144 18.7887 13.9248 17.8565 13.5822 17.0093C13.2397 16.1621 12.6595 15.438 11.9152 14.9285Z" fill="#55B02E"/>
<path d="M35.6092 22.5414C35.1132 22.5414 34.7212 22.4054 34.4332 22.1334C34.1612 21.8454 34.0252 21.4374 34.0252 20.9094V7.06136C34.0252 6.53336 34.1612 6.13336 34.4332 5.86136C34.7212 5.57336 35.1292 5.42936 35.6572 5.42936H44.0332C44.4492 5.42936 44.7612 5.53336 44.9692 5.74136C45.1772 5.94936 45.2812 6.24536 45.2812 6.62936C45.2812 7.02936 45.1772 7.34136 44.9692 7.56536C44.7612 7.77336 44.4492 7.87736 44.0332 7.87736H37.0972V12.6534H43.5292C43.9292 12.6534 44.2332 12.7574 44.4412 12.9654C44.6652 13.1734 44.7772 13.4694 44.7772 13.8534C44.7772 14.2534 44.6652 14.5654 44.4412 14.7894C44.2332 14.9974 43.9292 15.1014 43.5292 15.1014H37.0972V20.9094C37.0972 21.9974 36.6012 22.5414 35.6092 22.5414ZM49.6627 22.5174C49.1827 22.5174 48.8147 22.3734 48.5587 22.0854C48.3027 21.7974 48.1747 21.3974 48.1747 20.8854V12.0774C48.1747 11.5494 48.3027 11.1494 48.5587 10.8774C48.8147 10.5894 49.1827 10.4454 49.6627 10.4454C50.1427 10.4454 50.5107 10.5894 50.7667 10.8774C51.0387 11.1494 51.1747 11.5494 51.1747 12.0774V20.8854C51.1747 21.3974 51.0467 21.7974 50.7907 22.0854C50.5347 22.3734 50.1587 22.5174 49.6627 22.5174ZM49.6627 8.21336C49.1027 8.21336 48.6627 8.07736 48.3427 7.80537C48.0387 7.51736 47.8867 7.12536 47.8867 6.62936C47.8867 6.11736 48.0387 5.72536 48.3427 5.45336C48.6627 5.18136 49.1027 5.04536 49.6627 5.04536C50.2387 5.04536 50.6787 5.18136 50.9827 5.45336C51.2867 5.72536 51.4387 6.11736 51.4387 6.62936C51.4387 7.12536 51.2867 7.51736 50.9827 7.80537C50.6787 8.07736 50.2387 8.21336 49.6627 8.21336ZM55.7799 22.5414C55.2999 22.5414 54.9319 22.4134 54.6759 22.1574C54.4199 21.8854 54.2919 21.5014 54.2919 21.0054V11.9334C54.2919 11.4374 54.4199 11.0614 54.6759 10.8054C54.9319 10.5494 55.2919 10.4214 55.7559 10.4214C56.2199 10.4214 56.5799 10.5494 56.8359 10.8054C57.0919 11.0614 57.2199 11.4374 57.2199 11.9334V13.5654L56.9559 12.9654C57.3079 12.1174 57.8519 11.4774 58.5879 11.0454C59.3399 10.5974 60.1879 10.3734 61.1319 10.3734C62.0759 10.3734 62.8519 10.5494 63.4599 10.9014C64.0679 11.2534 64.5239 11.7894 64.8279 12.5094C65.1319 13.2134 65.2839 14.1094 65.2839 15.1974V21.0054C65.2839 21.5014 65.1559 21.8854 64.8999 22.1574C64.6439 22.4134 64.2759 22.5414 63.7959 22.5414C63.3159 22.5414 62.9399 22.4134 62.6679 22.1574C62.4119 21.8854 62.2839 21.5014 62.2839 21.0054V15.3414C62.2839 14.4294 62.1079 13.7654 61.7559 13.3494C61.4199 12.9334 60.8919 12.7254 60.1719 12.7254C59.2919 12.7254 58.5879 13.0054 58.0599 13.5654C57.5479 14.1094 57.2919 14.8374 57.2919 15.7494V21.0054C57.2919 22.0294 56.7879 22.5414 55.7799 22.5414ZM74.235 22.5414C73.739 22.5414 73.355 22.4054 73.083 22.1334C72.827 21.8454 72.699 21.4534 72.699 20.9574V7.99736H68.019C67.603 7.99736 67.275 7.88536 67.035 7.66136C66.811 7.42136 66.699 7.10136 66.699 6.70136C66.699 6.28536 66.811 5.97336 67.035 5.76536C67.275 5.54136 67.603 5.42936 68.019 5.42936H80.451C80.867 5.42936 81.187 5.54136 81.411 5.76536C81.651 5.97336 81.771 6.28536 81.771 6.70136C81.771 7.10136 81.651 7.42136 81.411 7.66136C81.187 7.88536 80.867 7.99736 80.451 7.99736H75.771V20.9574C75.771 21.4534 75.643 21.8454 75.387 22.1334C75.131 22.4054 74.747 22.5414 74.235 22.5414ZM82.8982 22.5414C82.4022 22.5414 82.0182 22.4134 81.7462 22.1574C81.4902 21.8854 81.3622 21.5014 81.3622 21.0054V11.9334C81.3622 11.4374 81.4902 11.0614 81.7462 10.8054C82.0022 10.5494 82.3622 10.4214 82.8262 10.4214C83.2902 10.4214 83.6502 10.5494 83.9062 10.8054C84.1622 11.0614 84.2902 11.4374 84.2902 11.9334V13.4454H84.0502C84.2742 12.4854 84.7142 11.7574 85.3702 11.2614C86.0262 10.7654 86.8982 10.4694 87.9862 10.3734C88.3222 10.3414 88.5862 10.4294 88.7782 10.6374C88.9862 10.8294 89.1062 11.1334 89.1382 11.5494C89.1702 11.9494 89.0742 12.2774 88.8502 12.5334C88.6422 12.7734 88.3222 12.9174 87.8902 12.9654L87.3622 13.0134C86.3862 13.1094 85.6502 13.4134 85.1542 13.9254C84.6582 14.4214 84.4102 15.1254 84.4102 16.0374V21.0054C84.4102 21.5014 84.2822 21.8854 84.0262 22.1574C83.7702 22.4134 83.3942 22.5414 82.8982 22.5414ZM94.5075 22.5894C93.6595 22.5894 92.8995 22.4294 92.2275 22.1094C91.5715 21.7734 91.0515 21.3254 90.6675 20.7654C90.2995 20.2054 90.1155 19.5734 90.1155 18.8694C90.1155 18.0054 90.3395 17.3254 90.7875 16.8294C91.2355 16.3174 91.9635 15.9494 92.9715 15.7254C93.9795 15.5014 95.3315 15.3894 97.0275 15.3894H98.2275V17.1174H97.0515C96.0595 17.1174 95.2675 17.1654 94.6755 17.2614C94.0835 17.3574 93.6595 17.5254 93.4035 17.7654C93.1635 17.9894 93.0435 18.3094 93.0435 18.7254C93.0435 19.2534 93.2275 19.6854 93.5955 20.0214C93.9635 20.3574 94.4755 20.5254 95.1315 20.5254C95.6595 20.5254 96.1235 20.4054 96.5235 20.1654C96.9395 19.9094 97.2675 19.5654 97.5075 19.1334C97.7475 18.7014 97.8675 18.2054 97.8675 17.6454V14.8854C97.8675 14.0854 97.6915 13.5094 97.3395 13.1574C96.9875 12.8054 96.3955 12.6294 95.5635 12.6294C95.0995 12.6294 94.5955 12.6854 94.0515 12.7974C93.5235 12.9094 92.9635 13.1014 92.3715 13.3734C92.0675 13.5174 91.7955 13.5574 91.5555 13.4934C91.3315 13.4294 91.1555 13.3014 91.0275 13.1094C90.8995 12.9014 90.8355 12.6774 90.8355 12.4374C90.8355 12.1974 90.8995 11.9654 91.0275 11.7414C91.1555 11.5014 91.3715 11.3254 91.6755 11.2134C92.4115 10.9094 93.1155 10.6934 93.7875 10.5654C94.4755 10.4374 95.0995 10.3734 95.6595 10.3734C96.8115 10.3734 97.7555 10.5494 98.4915 10.9014C99.2435 11.2534 99.8035 11.7894 100.171 12.5094C100.539 13.2134 100.723 14.1254 100.723 15.2454V21.0054C100.723 21.5014 100.603 21.8854 100.363 22.1574C100.123 22.4134 99.7795 22.5414 99.3315 22.5414C98.8835 22.5414 98.5315 22.4134 98.2755 22.1574C98.0355 21.8854 97.9155 21.5014 97.9155 21.0054V19.8534H98.1075C97.9955 20.4134 97.7715 20.9014 97.4355 21.3174C97.1155 21.7174 96.7075 22.0294 96.2115 22.2534C95.7155 22.4774 95.1475 22.5894 94.5075 22.5894ZM109.192 22.5894C107.96 22.5894 106.888 22.3414 105.976 21.8454C105.064 21.3334 104.36 20.6134 103.864 19.6854C103.368 18.7574 103.12 17.6694 103.12 16.4214C103.12 15.4774 103.256 14.6374 103.528 13.9014C103.816 13.1494 104.224 12.5174 104.752 12.0054C105.28 11.4774 105.92 11.0774 106.672 10.8054C107.424 10.5174 108.264 10.3734 109.192 10.3734C109.72 10.3734 110.288 10.4454 110.896 10.5894C111.52 10.7334 112.104 10.9734 112.648 11.3094C112.904 11.4694 113.072 11.6614 113.152 11.8854C113.232 12.1094 113.248 12.3414 113.2 12.5814C113.152 12.8054 113.048 13.0054 112.888 13.1814C112.744 13.3414 112.56 13.4454 112.336 13.4934C112.112 13.5254 111.864 13.4694 111.592 13.3254C111.24 13.1174 110.88 12.9654 110.512 12.8694C110.144 12.7574 109.792 12.7014 109.456 12.7014C108.928 12.7014 108.464 12.7894 108.064 12.9654C107.664 13.1254 107.32 13.3654 107.032 13.6854C106.76 13.9894 106.552 14.3734 106.408 14.8374C106.264 15.3014 106.192 15.8374 106.192 16.4454C106.192 17.6294 106.472 18.5654 107.032 19.2534C107.608 19.9254 108.416 20.2614 109.456 20.2614C109.792 20.2614 110.136 20.2134 110.488 20.1174C110.856 20.0214 111.224 19.8694 111.592 19.6614C111.864 19.5174 112.104 19.4694 112.312 19.5174C112.536 19.5654 112.72 19.6774 112.864 19.8534C113.008 20.0134 113.096 20.2134 113.128 20.4534C113.16 20.6774 113.128 20.9014 113.032 21.1254C112.952 21.3494 112.792 21.5334 112.552 21.6774C112.024 21.9974 111.464 22.2294 110.872 22.3734C110.28 22.5174 109.72 22.5894 109.192 22.5894ZM116.577 22.5414C116.097 22.5414 115.729 22.4134 115.473 22.1574C115.217 21.8854 115.089 21.5014 115.089 21.0054V6.74936C115.089 6.25336 115.217 5.87736 115.473 5.62136C115.729 5.36536 116.097 5.23736 116.577 5.23736C117.057 5.23736 117.425 5.36536 117.681 5.62136C117.953 5.87736 118.089 6.25336 118.089 6.74936V15.6054H118.137L122.097 11.4294C122.417 11.1094 122.697 10.8614 122.937 10.6854C123.177 10.5094 123.505 10.4214 123.921 10.4214C124.337 10.4214 124.649 10.5334 124.857 10.7574C125.081 10.9654 125.193 11.2214 125.193 11.5254C125.193 11.8294 125.049 12.1334 124.761 12.4374L120.585 16.8534V15.6054L125.169 20.5494C125.457 20.8534 125.585 21.1654 125.553 21.4854C125.537 21.7894 125.409 22.0454 125.169 22.2534C124.929 22.4454 124.625 22.5414 124.257 22.5414C123.809 22.5414 123.449 22.4534 123.177 22.2774C122.921 22.1014 122.633 21.8374 122.313 21.4854L118.137 17.1174H118.089V21.0054C118.089 22.0294 117.585 22.5414 116.577 22.5414Z" fill="white"/>
</svg>
